{"title":"Sexy South Indian couple home made/Sexy South Indian couple home","uid":10890111,"size":142335019,"categoryP":"porn","categoryS":"other","magnet":"?xt=urn:btih:ba457221d42b15212faf6e0d4c1f453d2c1eebd7&amp;dn=Sexy+South+Indian+couple+home+made%2FSexy+South+Indian+couple+home&amp;tr=udp%3A%2F%2Ftracker.openbittorrent.com%3A80&amp;tr=udp%3A%2F%2Fopen.demonii.com%3A1337&amp;tr=udp%3A%2F%2Ftracker.coppersurfer.tk%3A6969&amp;tr=udp%3A%2F%2Fexodus.desync.com%3A6969","seeders":0,"leechers":2,"uploader":"TomcatX","files":1,"time":1409094622,"description":"General\nComplete name : Sexy South Indian couple home made/Sexy South Indian couple home made.mpg\nFormat : MPEG-PS\nFile size : 169 MiB\nDuration : 16mn 47s\nOverall bit rate : 1 404 Kbps\n\nVideo\nID : 224 (0xE0)\nFormat : MPEG Video\nFormat version : Version 1\nFormat settings, BVOP : No\nFormat settings, Matrix : Default\nDuration : 16mn 47s\nBit rate : 1 150 Kbps\nWidth : 352 pixels\nHeight : 288 pixels\nDisplay aspect ratio : 4:3\nFrame rate : 25.000 fps\nStandard : PAL\nColor space : YUV\nBit depth : 8 bits\nScan type : Progressive\nCompression mode : Lossy\nBits/(Pixel*Frame) : 0.454\nStream size : 138 MiB (82%)\n\nAudio\nID : 192 (0xC0)\nFormat : MPEG Audio\nFormat version : Version 1\nFormat profile : Layer 2\nDuration : 16mn 46s\nBit rate mode : Constant\nBit rate : 224 Kbps\nChannel(s) : 2 channels\nSampling rate : 44.1 KHz\nCompression mode : Lossy\nStream size : 26.9 MiB (16%)\n\nScreen &lt;a href=&quot;\nhttp://imgextra.biz/viewer.php?file=zc36fgedgoq6vy3uil1.jpg&quot; rel=&quot;nofollow&quot; target=&quot;_NEW&quot;&gt;\nhttp://imgextra.biz/viewer.php?file=zc36fgedgoq6vy3uil1.jpg&lt;/a&gt; &lt;a href=&quot;\nhttp://imgextra.biz/viewer.php?file=67vhh8jtidh8i22cutc4.jpg&quot; rel=&quot;nofollow&quot; target=&quot;_NEW&quot;&gt;\nhttp://imgextra.biz/viewer.php?file=67vhh8jtidh8i22cutc4.jpg&lt;/a&gt;","torrent":{"xt":"urn:btih:ba457221d42b15212faf6e0d4c1f453d2c1eebd7","amp;dn":"Sexy+South+Indian+couple+home+made%2FSexy+South+Indian+couple+home","amp;tr":["udp%3A%2F%2Ftracker.openbittorrent.com%3A80","udp%3A%2F%2Fopen.demonii.com%3A1337","udp%3A%2F%2Ftracker.coppersurfer.tk%3A6969","udp%3A%2F%2Fexodus.desync.com%3A6969"],"infoHash":"ba457221d42b15212faf6e0d4c1f453d2c1eebd7","infoHashBuffer":{"type":"Buffer","data":[186,69,114,33,212,43,21,33,47,175,110,13,76,31,69,61,44,30,235,215]},"announce":[],"urlList":[]}}